<?xml version="1.0" standalone="no"?>
<!DOCTYPE svg PUBLIC "-//W3C//DTD SVG 20010904//EN"
 "http://www.w3.org/TR/2001/REC-SVG-20010904/DTD/svg10.dtd">
<svg version="1.0" xmlns="http://www.w3.org/2000/svg"
 width="3840.000000pt" height="2160.000000pt" viewBox="0 0 3840.000000 2160.000000"
 preserveAspectRatio="xMidYMid meet">

<g transform="translate(0.000000,2160.000000) scale(0.100000,-0.100000)"
fill="#000000" stroke="none">
<path d="M15275 21029 c-22 -4 -161 -31 -310 -59 -1429 -269 -2934 -722 -4310
-1295 -316 -132 -743 -321 -764 -338 -31 -26 -370 -549 -626 -967 -609 -993
-1188 -2106 -1638 -3145 -1494 -3455 -2069 -7095 -1736 -10980 11 -131 25
-247 30 -256 17 -33 532 -399 983 -698 802 -533 1522 -949 2386 -1379 752
-375 1440 -673 2225 -962 361 -133 1106 -380 1148 -380 19 0 44 8 55 17 51 46
517 732 717 1057 297 485 675 1172 675 1228 0 51 -36 72 -287 172 -544 217
-1083 475 -1668 798 -289 160 -295 179 -107 322 53 40 151 117 217 170 66 53
130 99 142 102 14 4 90 -24 229 -86 1871 -826 3727 -1281 5704 -1401 283 -17
832 -25 1212 -17 2115 40 4237 530 6251 1443 110 50 155 65 174 60 14 -3 80
-50 147 -103 66 -54 162 -129 211 -166 50 -38 98 -78 108 -89 22 -25 22 -79
-1 -106 -38 -45 -657 -379 -1037 -559 -309 -147 -508 -234 -830 -363 -148 -60
-276 -116 -282 -126 -28 -37 -15 -81 79 -256 324 -610 702 -1232 1085 -1787
211 -305 215 -310 262 -310 64 0 886 276 1391 468 1791 679 3464 1579 5068
2726 264 189 293 212 302 245 5 20 16 119 25 221 73 887 90 1280 90 2155 0
706 -6 927 -41 1465 -253 3976 -1525 7671 -3856 11201 l-189 287 -212 95
c-1612 722 -3314 1252 -5023 1566 -236 44 -281 48 -306 29 -48 -39 -409 -755
-609 -1210 -39 -90 -77 -175 -84 -189 l-14 -26 -123 18 c-679 100 -1450 170
-2212 200 -341 13 -1463 7 -1751 -10 -661 -39 -1197 -90 -1750 -167 -137 -19
-258 -35 -268 -37 -14 -2 -33 33 -91 163 -208 469 -583 1205 -638 1253 -22 19
-83 21 -153 6z m-297 -8550 c806 -87 1504 -595 1887 -1374 157 -319 240 -600
280 -955 22 -183 16 -628 -9 -785 -64 -400 -169 -717 -337 -1016 -328 -585
-843 -1013 -1424 -1182 -233 -68 -419 -91 -684 -84 -213 5 -332 23 -525 77
-787 222 -1446 915 -1700 1789 -154 530 -155 1136 -2 1668 53 183 99 301 191
488 257 522 649 921 1140 1161 232 113 476 185 720 212 114 13 349 14 463 1z
m8910 0 c252 -27 497 -97 727 -208 253 -122 424 -242 629 -441 450 -437 724
-1005 808 -1670 19 -155 16 -591 -5 -753 -62 -467 -216 -889 -455 -1246 -107
-161 -171 -240 -307 -380 -375 -386 -826 -616 -1345 -686 -123 -17 -399 -19
-520 -5 -678 82 -1284 472 -1695 1090 -86 130 -237 427 -289 571 -125 343
-179 653 -179 1034 0 320 31 547 114 837 186 647 588 1195 1124 1533 403 254
923 375 1393 324z"/>
</g>
</svg>
