<?xml version="1.0" standalone="no"?>
<!DOCTYPE svg PUBLIC "-//W3C//DTD SVG 20010904//EN"
 "http://www.w3.org/TR/2001/REC-SVG-20010904/DTD/svg10.dtd">
<svg version="1.0" xmlns="http://www.w3.org/2000/svg"
 width="920.000000pt" height="512.000000pt" viewBox="0 0 920.000000 512.000000"
 preserveAspectRatio="xMidYMid meet">

<g transform="translate(0.000000,512.000000) scale(0.100000,-0.100000)"
fill="#000000" stroke="none">
<path d="M2281 4388 c-62 -11 -139 -57 -178 -107 -67 -89 -64 21 -61 -1741 l3
-1595 21 -46 c29 -62 85 -116 153 -147 l56 -26 2327 0 2326 0 66 33 c46 23 77
46 101 78 70 91 66 -22 63 1743 l-3 1595 -21 46 c-29 62 -85 116 -153 147
l-56 26 -2302 0 c-1266 1 -2320 -2 -2342 -6z m3275 -1347 l-956 -956 -956 956
-955 955 1911 0 1911 0 -955 -955z m-2387 -95 l723 -723 -356 -229 c-196 -126
-409 -263 -474 -305 -64 -41 -220 -142 -346 -223 -127 -82 -240 -155 -253
-163 l-23 -15 0 1191 c0 655 1 1191 3 1191 1 0 328 -326 726 -724z m3589
-1061 l-3 -595 -120 77 c-66 42 -304 196 -530 341 -225 146 -448 290 -495 320
-47 30 -134 86 -193 125 l-109 70 724 724 723 723 3 -595 c1 -327 1 -863 0
-1190z m-2288 -216 c37 -20 60 -24 130 -24 123 0 147 16 374 243 l188 189 282
-181 c154 -100 479 -310 721 -466 242 -156 446 -288 453 -295 9 -8 -500 -11
-2025 -11 -1443 0 -2031 3 -2019 10 9 6 52 34 94 61 42 28 160 104 262 169
322 207 357 230 735 474 l370 240 195 -193 c117 -116 213 -202 240 -216z"/>
</g>
</svg>
