<?xml version="1.0" standalone="no"?>
<!DOCTYPE svg PUBLIC "-//W3C//DTD SVG 20010904//EN"
 "http://www.w3.org/TR/2001/REC-SVG-20010904/DTD/svg10.dtd">
<svg version="1.0" xmlns="http://www.w3.org/2000/svg"
 width="840.000000pt" height="660.000000pt" viewBox="0 0 840.000000 660.000000"
 preserveAspectRatio="xMidYMid meet">

<g transform="translate(0.000000,660.000000) scale(0.100000,-0.100000)"
fill="#000000" stroke="none">
<path d="M4000 6294 c-19 -2 -82 -9 -140 -15 -147 -15 -379 -63 -532 -110
-349 -107 -639 -256 -948 -488 -134 -100 -434 -394 -531 -521 -349 -454 -547
-924 -625 -1480 -13 -92 -18 -191 -18 -380 0 -189 5 -288 18 -380 78 -556 276
-1026 625 -1480 97 -127 397 -421 531 -521 442 -331 898 -520 1440 -595 173
-25 586 -25 755 -1 676 96 1241 370 1714 831 503 491 802 1096 892 1806 18
138 18 542 0 680 -90 710 -389 1315 -892 1806 -471 459 -1043 737 -1706 829
-102 15 -508 28 -583 19z m589 -363 c949 -144 1740 -775 2089 -1667 125 -320
176 -601 176 -964 0 -227 -8 -325 -45 -515 -205 -1051 -1043 -1889 -2094
-2094 -190 -37 -288 -45 -515 -45 -227 0 -325 8 -515 45 -997 195 -1810 962
-2060 1946 -62 244 -79 384 -79 663 0 279 17 419 79 663 263 1032 1138 1818
2190 1967 197 28 206 28 435 24 139 -2 248 -9 339 -23z"/>
<path d="M3400 5215 c0 -15 258 -1015 286 -1107 3 -10 11 -18 18 -18 8 0 61
36 119 80 l105 80 -94 368 c-52 202 -105 409 -118 460 -13 52 -27 96 -30 99
-13 14 -286 50 -286 38z"/>
<path d="M3214 5109 c-146 -118 -206 -173 -295 -274 -167 -191 -184 -241 -183
-540 1 -260 41 -513 125 -795 61 -203 197 -522 280 -656 23 -38 69 -114 102
-169 177 -296 368 -535 586 -732 127 -115 206 -174 426 -318 219 -144 260
-166 387 -209 166 -57 233 -50 538 56 154 53 280 109 299 132 10 11 -36 56
-251 248 -311 278 -567 498 -578 498 -4 0 -15 -33 -25 -73 -25 -106 -25 -106
-48 -127 -27 -26 -77 -25 -111 1 -38 30 -133 175 -366 559 -111 184 -224 366
-250 405 -140 208 -464 756 -508 862 -28 66 -28 75 4 112 31 37 50 38 155 9
44 -11 82 -19 85 -15 8 8 -12 94 -117 502 -110 428 -151 578 -159 588 -3 4
-46 -25 -96 -64z"/>
<path d="M4875 2547 c-124 -57 -176 -88 -173 -101 3 -13 291 -266 671 -589
l197 -168 19 43 c10 24 33 82 51 130 29 76 31 89 19 104 -22 27 -699 614 -707
614 -4 0 -38 -15 -77 -33z"/>
</g>
</svg>
