<?xml version="1.0" standalone="no"?>
<!DOCTYPE svg PUBLIC "-//W3C//DTD SVG 20010904//EN"
 "http://www.w3.org/TR/2001/REC-SVG-20010904/DTD/svg10.dtd">
<svg version="1.0" xmlns="http://www.w3.org/2000/svg"
 width="900.000000pt" height="657.000000pt" viewBox="0 0 900.000000 657.000000"
 preserveAspectRatio="xMidYMid meet">
<metadata>
Created by potrace 1.16, written by Peter Selinger 2001-2019
</metadata>
<g transform="translate(0.000000,657.000000) scale(0.100000,-0.100000)"
fill="#000000" stroke="none">
<path d="M4320 6213 c-110 -6 -328 -35 -445 -59 -755 -153 -1393 -582 -1819
-1222 -303 -455 -469 -999 -483 -1579 -8 -321 17 -545 92 -837 245 -954 970
-1711 1934 -2021 557 -178 1199 -186 1746 -20 688 209 1257 632 1648 1225 300
457 440 950 438 1546 -2 450 -75 838 -233 1239 -239 603 -721 1109 -1353 1420
-209 103 -369 163 -568 215 -315 82 -629 112 -957 93z m580 -268 c590 -91
1145 -369 1551 -774 277 -278 455 -573 583 -969 169 -525 198 -1096 80 -1601
-105 -448 -351 -873 -705 -1216 -146 -142 -240 -218 -410 -331 -305 -204 -673
-349 -1046 -414 -854 -147 -1758 144 -2375 763 -628 630 -888 1531 -702 2435
108 528 331 958 694 1336 226 236 518 439 810 564 239 103 552 186 795 211 55
6 116 13 135 15 90 9 492 -3 590 -19z"/>
<path d="M5765 4661 c-205 -76 -3177 -1267 -3202 -1284 -34 -23 -60 -60 -63
-92 -5 -50 2 -70 43 -110 34 -34 68 -52 187 -98 80 -31 258 -100 395 -153 151
-58 260 -106 277 -121 29 -27 30 -32 173 -571 46 -172 94 -331 107 -355 18
-32 33 -45 65 -57 39 -13 46 -13 92 7 27 11 151 94 275 183 124 89 232 160
239 157 7 -3 204 -134 438 -292 233 -158 438 -294 456 -301 68 -29 140 -9 169
47 19 38 5 -32 350 1774 58 303 129 672 159 821 30 150 55 298 55 329 0 55 -2
60 -40 97 -34 32 -48 38 -83 38 -23 -1 -64 -9 -92 -19z m-566 -545 c-13 -13
-348 -335 -744 -716 l-719 -693 -23 84 c-12 46 -26 102 -32 124 -16 60 -46
102 -88 124 -21 10 -117 49 -213 85 -96 36 -220 83 -274 104 l-99 39 849 338
c467 186 964 384 1104 440 140 56 257 100 259 98 3 -2 -6 -14 -20 -27z m356
-361 c-40 -209 -135 -704 -210 -1100 -75 -396 -138 -721 -140 -723 -2 -2 -183
120 -916 618 l-186 126 760 732 c419 402 762 730 763 729 1 -1 -31 -173 -71
-382z m-1457 -1410 c1 -1 -48 -39 -110 -84 l-113 -81 -11 42 c-6 24 -28 105
-48 180 -20 75 -36 142 -36 148 0 8 219 -134 318 -205z"/>
</g>
</svg>
